<svg xmlns="http://www.w3.org/2000/svg" width="33" height="33" viewBox="0 0 33 33" fill="none">
  <path d="M8.25 3.75L4.125 9.25V28.5C4.125 29.2293 4.41473 29.9288 4.93046 30.4445C5.44618 30.9603 6.14565 31.25 6.875 31.25H26.125C26.8543 31.25 27.5538 30.9603 28.0695 30.4445C28.5853 29.9288 28.875 29.2293 28.875 28.5V9.25L24.75 3.75H8.25Z" stroke="black" stroke-width="2" stroke-linecap="round" stroke-linejoin="round"/>
  <path d="M4.125 9.25H28.875" stroke="black" stroke-width="2" stroke-linecap="round" stroke-linejoin="round"/>
  <path d="M22 14.75C22 16.2087 21.4205 17.6076 20.3891 18.6391C19.3576 19.6705 17.9587 20.25 16.5 20.25C15.0413 20.25 13.6424 19.6705 12.6109 18.6391C11.5795 17.6076 11 16.2087 11 14.75" stroke="black" stroke-width="2" stroke-linecap="round" stroke-linejoin="round"/>
</svg>