<svg width="33" height="33" viewBox="0 0 33 33" fill="none" xmlns="http://www.w3.org/2000/svg">
<path d="M11.1417 4.491C12.8283 -0.699661 20.1717 -0.699662 21.8582 4.491C22.6125 6.81234 24.7757 8.384 27.2165 8.384C32.6743 8.384 34.9435 15.368 30.5281 18.576C28.5534 20.0107 27.7272 22.5537 28.4814 24.875C30.168 30.0657 24.227 34.382 19.8116 31.174C17.8369 29.7393 15.1631 29.7393 13.1884 31.174C8.77298 34.382 2.83204 30.0657 4.51859 24.875C5.27283 22.5537 4.44656 20.0107 2.47192 18.576C-1.94353 15.368 0.32571 8.384 5.7835 8.384C8.22429 8.384 10.3875 6.81234 11.1417 4.491Z" fill="#020202" fill-opacity="0.9"/>
  <g transform="translate(8,11)">
<path d="M15.1326 2L6.34682 10L2.35327 6.36364" stroke="white" stroke-width="3" stroke-linecap="round" stroke-linejoin="round"  />
</g>
</svg>
